<svg width="24" height="24" viewBox="0 0 24 24" fill="none" xmlns="http://www.w3.org/2000/svg">
<g clip-path="url(#clip0_1607_38511)">
<path d="M21.8064 16.1037L19.1777 14.1316C18.5331 13.6607 17.7357 13.4476 16.942 13.5343C16.1484 13.621 15.4158 14.0011 14.888 14.6001C14.2559 15.1618 14.0376 15.2753 13.8223 15.1482C11.7461 13.9803 10.0296 12.2657 8.85937 10.1908C8.8174 10.1159 8.79909 10.0301 8.80687 9.94459C8.81465 9.85908 8.84814 9.77794 8.90295 9.71184L9.76794 8.67363C10.2177 8.13724 10.4723 7.46422 10.4903 6.76445C10.5083 6.06468 10.2885 5.37949 9.86682 4.82073L7.89514 2.1917C6.69608 0.839741 5.14387 0.469354 3.77271 1.22784C1.77575 2.31658 0.393305 5.66997 0.969763 7.94121C1.67459 14.0554 9.71896 22.9968 17.1791 23.1272C20.7615 23.3209 25.5477 19.4792 21.8064 16.1037ZM21.1055 20.0225C17.3811 23.6791 11.4031 20.4488 7.4209 16.5779C3.98401 13.1407 2.81945 9.84588 2.43601 7.6303C2.02751 5.76648 3.23287 2.54179 5.24587 2.33775C5.53258 2.36057 5.8115 2.44228 6.0652 2.57776C6.3189 2.71325 6.54194 2.8996 6.72037 3.12517L8.66678 5.72088C8.88487 6.00982 8.99857 6.36416 8.98932 6.72604C8.98008 7.08793 8.84843 7.436 8.61588 7.71343L7.75085 8.75131C7.50216 9.05177 7.35016 9.42041 7.3148 9.80883C7.27944 10.1972 7.36238 10.5873 7.55273 10.9277C8.85313 13.2334 10.7586 15.1402 13.0635 16.4421C14.5483 17.2375 15.4344 16.0381 16.2854 15.383C16.563 15.1507 16.9111 15.0192 17.2729 15.0099C17.6348 15.0006 17.9892 15.114 18.2784 15.3317L20.907 17.3034C21.112 17.4597 21.2815 17.6577 21.4042 17.8844C21.5269 18.111 21.6 18.3612 21.6188 18.6183C21.6375 18.8753 21.6015 19.1334 21.513 19.3755C21.4245 19.6176 21.2856 19.8381 21.1055 20.0225ZM13.5432 2.57366C13.5432 2.47516 13.5626 2.37762 13.6002 2.28662C13.6379 2.19561 13.6932 2.11292 13.7628 2.04327C13.8325 1.97362 13.9152 1.91838 14.0062 1.8807C14.0972 1.84302 14.1947 1.82363 14.2932 1.82366C16.3828 1.82599 18.3862 2.65712 19.8638 4.1347C21.3413 5.61228 22.1725 7.61564 22.1748 9.70525C22.1748 9.90416 22.0958 10.0949 21.9551 10.2356C21.8145 10.3762 21.6237 10.4553 21.4248 10.4553C21.2259 10.4553 21.0351 10.3762 20.8945 10.2356C20.7538 10.0949 20.6748 9.90416 20.6748 9.70525C20.6729 8.01334 19.9999 6.39129 18.8035 5.19493C17.6072 3.99857 15.9851 3.3256 14.2932 3.32366C14.1947 3.32368 14.0972 3.3043 14.0062 3.26662C13.9152 3.22894 13.8325 3.1737 13.7628 3.10405C13.6932 3.0344 13.6379 2.95171 13.6002 2.8607C13.5626 2.7697 13.5432 2.67216 13.5432 2.57366ZM13.5432 6.27165C13.5432 6.17316 13.5626 6.07562 13.6002 5.98461C13.6379 5.89361 13.6932 5.81092 13.7628 5.74127C13.8325 5.67162 13.9152 5.61637 14.0062 5.57869C14.0972 5.54101 14.1947 5.52163 14.2932 5.52165C15.4025 5.52284 16.466 5.96397 17.2504 6.74827C18.0348 7.53257 18.4762 8.59599 18.4775 9.70525C18.4748 9.90233 18.3945 10.0904 18.2542 10.2288C18.1138 10.3671 17.9246 10.4447 17.7275 10.4447C17.5304 10.4447 17.3413 10.3671 17.2009 10.2288C17.0606 10.0904 16.9803 9.90233 16.9775 9.70525C16.9767 8.99366 16.6935 8.31148 16.1903 7.80838C15.6871 7.30528 15.0048 7.02236 14.2932 7.02169C14.1947 7.02172 14.0972 7.00233 14.0062 6.96465C13.9151 6.92697 13.8325 6.87172 13.7628 6.80207C13.6932 6.73241 13.6379 6.64972 13.6002 6.55871C13.5626 6.4677 13.5432 6.37016 13.5432 6.27165ZM14.2934 8.95186C14.4879 8.9586 14.6721 9.04057 14.8072 9.18048C14.9424 9.3204 15.0179 9.50733 15.0179 9.70186C15.0179 9.89639 14.9424 10.0833 14.8072 10.2232C14.6721 10.3632 14.4879 10.4451 14.2934 10.4519C14.099 10.4451 13.9148 10.3632 13.7797 10.2232C13.6445 10.0833 13.569 9.89639 13.569 9.70186C13.569 9.50733 13.6445 9.3204 13.7797 9.18048C13.9148 9.04057 14.099 8.9586 14.2934 8.95186Z" fill="black"/>
</g>
<defs>
<clipPath id="clip0_1607_38511">
<rect width="24" height="24" fill="white"/>
</clipPath>
</defs>
</svg>
