<svg width="12" height="13" viewBox="0 0 12 13" fill="none" xmlns="http://www.w3.org/2000/svg">
<path d="M5.69531 8.46875C5.4375 8.72656 5.03906 8.72656 4.78125 8.46875L3.28125 6.96875C3.02344 6.71094 3.02344 6.3125 3.28125 6.05469C3.53906 5.79688 3.9375 5.79688 4.19531 6.05469L5.25 7.08594L7.78125 4.55469C8.03906 4.29688 8.4375 4.29688 8.69531 4.55469C8.95312 4.8125 8.95312 5.21094 8.69531 5.46875L5.69531 8.46875ZM12 6.5C12 9.82812 9.30469 12.5 6 12.5C2.67188 12.5 0 9.82812 0 6.5C0 3.19531 2.67188 0.5 6 0.5C9.30469 0.5 12 3.19531 12 6.5ZM6 1.625C3.30469 1.625 1.125 3.82812 1.125 6.5C1.125 9.19531 3.30469 11.375 6 11.375C8.67188 11.375 10.875 9.19531 10.875 6.5C10.875 3.82812 8.67188 1.625 6 1.625Z" fill="#5CB85C"/>
</svg>
