<svg width="30" height="31" viewBox="0 0 30 31" fill="none" xmlns="http://www.w3.org/2000/svg">
<path opacity="0.6" d="M15 0.5C12.0333 0.5 9.13319 1.37973 6.66645 3.02796C4.19972 4.67618 2.27713 7.01885 1.14181 9.75975C0.00649917 12.5006 -0.290551 15.5166 0.288227 18.4263C0.867006 21.3361 2.29562 24.0088 4.3934 26.1066C6.49119 28.2044 9.16393 29.633 12.0736 30.2118C14.9834 30.7906 17.9994 30.4935 20.7403 29.3582C23.4811 28.2229 25.8238 26.3003 27.472 23.8335C29.1203 21.3668 30 18.4667 30 15.5C30.0003 13.5301 29.6125 11.5794 28.8587 9.75943C28.105 7.93942 27.0001 6.28573 25.6072 4.8928C24.2143 3.49986 22.5606 2.39498 20.7406 1.64126C18.9206 0.887533 16.9699 0.499731 15 0.5ZM18.8 20.9308L15 17.1297L11.2 20.9297C11.0941 21.0415 10.9668 21.131 10.8258 21.1928C10.6847 21.2545 10.5327 21.2875 10.3787 21.2895C10.2247 21.2916 10.0719 21.2628 9.9292 21.2048C9.78653 21.1468 9.65692 21.0609 9.54802 20.952C9.43913 20.8431 9.35315 20.7135 9.29518 20.5708C9.2372 20.4281 9.2084 20.2753 9.21047 20.1213C9.21255 19.9673 9.24545 19.8153 9.30725 19.6742C9.36904 19.5332 9.45847 19.4059 9.57026 19.3L13.3703 15.5L9.57026 11.7C9.36366 11.482 9.25032 11.1919 9.25436 10.8916C9.2584 10.5912 9.37951 10.3043 9.59191 10.0919C9.8043 9.87951 10.0912 9.7584 10.3916 9.75435C10.6919 9.75031 10.982 9.86365 11.2 10.0703L15 13.8703L18.8 10.0703C18.9059 9.95847 19.0332 9.86903 19.1742 9.80724C19.3153 9.74544 19.4673 9.71254 19.6213 9.71047C19.7753 9.70839 19.9281 9.73719 20.0708 9.79517C20.2135 9.85314 20.3431 9.93912 20.452 10.048C20.5609 10.1569 20.6469 10.2865 20.7048 10.4292C20.7628 10.5719 20.7916 10.7247 20.7895 10.8787C20.7875 11.0327 20.7546 11.1847 20.6928 11.3258C20.631 11.4668 20.5415 11.5941 20.4297 11.7L16.6297 15.5L20.4297 19.3C20.6445 19.5168 20.765 19.8097 20.765 20.1149C20.765 20.4201 20.6445 20.7129 20.4297 20.9297C20.3233 21.0378 20.1965 21.1235 20.0567 21.1821C19.9168 21.2407 19.7667 21.2709 19.6151 21.271C19.4635 21.2711 19.3133 21.2411 19.1734 21.1827C19.0335 21.1243 18.9066 21.0386 18.8 20.9308Z" fill="#37474F"/>
</svg>
