<svg width="24" height="24" viewBox="0 0 24 24" fill="none" xmlns="http://www.w3.org/2000/svg">
<path d="M18.3056 2.06259H14.8468V0.705882C14.8468 0.316047 14.5307 0 14.1409 0H9.85852C9.46869 0 9.15264 0.316047 9.15264 0.705882V2.06259H5.69382C4.52615 2.06259 3.57617 3.01256 3.57617 4.18024V21.8824C3.57617 23.05 4.52615 24 5.69382 24H18.3056C19.4733 24 20.4232 23.05 20.4232 21.8824V4.18024C20.4232 3.01256 19.4733 2.06259 18.3056 2.06259ZM10.5644 1.41176H13.435V4.02353C13.435 4.81492 12.7911 5.45882 11.9997 5.45882C11.2083 5.45882 10.5644 4.81492 10.5644 4.02353V1.41176ZM19.0115 21.8824C19.0115 22.2716 18.6948 22.5882 18.3056 22.5882H5.69382C5.3046 22.5882 4.98794 22.2716 4.98794 21.8824V4.18024C4.98794 3.79101 5.3046 3.47435 5.69382 3.47435H9.15264V4.02353C9.15264 5.59336 10.4299 6.87059 11.9997 6.87059C13.5695 6.87059 14.8468 5.59336 14.8468 4.02353V3.47435H18.3056C18.6948 3.47435 19.0115 3.79101 19.0115 4.18024V21.8824Z" fill="black"/>
<path d="M9.09651 17.7488H14.9047C15.2945 17.7488 15.6106 17.4328 15.6106 17.0429V15.194C15.6106 14.0796 14.9867 13.1082 14.0698 12.6107C14.3757 12.1894 14.5566 11.6719 14.5566 11.1127C14.5566 9.70328 13.41 8.55664 12.0006 8.55664C10.5912 8.55664 9.44455 9.70328 9.44455 11.1127C9.44455 11.6719 9.62554 12.1894 9.93138 12.6107C9.01453 13.1082 8.39062 14.0796 8.39062 15.194V17.0429C8.39062 17.4328 8.70667 17.7488 9.09651 17.7488ZM12.0006 9.96841C12.6316 9.96841 13.1449 10.4817 13.1449 11.1127C13.1449 11.7437 12.6316 12.257 12.0006 12.257C11.3696 12.257 10.8563 11.7437 10.8563 11.1127C10.8563 10.4818 11.3696 9.96841 12.0006 9.96841ZM9.80239 15.194C9.80239 14.353 10.4866 13.6688 11.3276 13.6688H12.6736C13.5146 13.6688 14.1988 14.353 14.1988 15.194V16.3371H9.80239V15.194Z" fill="black"/>
<path d="M15.424 19.4355H8.57698C8.18714 19.4355 7.87109 19.7516 7.87109 20.1414C7.87109 20.5313 8.18714 20.8473 8.57698 20.8473H15.424C15.8139 20.8473 16.1299 20.5313 16.1299 20.1414C16.1299 19.7516 15.8139 19.4355 15.424 19.4355Z" fill="black"/>
</svg>
