<svg width="36" height="36" viewBox="0 0 36 36" fill="inherit" xmlns="http://www.w3.org/2000/svg">
<path fill-rule="evenodd" clip-rule="evenodd" d="M9.21098 7.74264C9.41609 7.53752 9.69429 7.42228 9.98438 7.42228C10.2745 7.42228 10.5527 7.53752 10.7578 7.74264L26.2257 23.2106C26.4309 23.4157 26.5461 23.6939 26.5461 23.984C26.5461 24.2741 26.4309 24.5523 26.2257 24.7574C26.0206 24.9625 25.7424 25.0777 25.4523 25.0777C25.1623 25.0777 24.8841 24.9625 24.6789 24.7574L9.21098 9.28943C9.00586 9.08431 8.89063 8.80611 8.89063 8.51603C8.89063 8.22595 9.00586 7.94775 9.21098 7.74264Z" fill="inherit"/>
<path d="M8.89079 24.4839C8.89079 24.774 9.00602 25.0522 9.21114 25.2573C9.41626 25.4624 9.69446 25.5776 9.98454 25.5776C10.2746 25.5776 10.5528 25.4624 10.7579 25.2573L26.2259 9.78932C26.431 9.58421 26.5463 9.30601 26.5463 9.01593C26.5463 8.72585 26.431 8.44765 26.2259 8.24253C26.0208 8.03741 25.7426 7.92217 25.4525 7.92217C25.1624 7.92217 24.8842 8.03741 24.6791 8.24253L9.21114 23.7105C9.00602 23.9156 8.89079 24.1938 8.89079 24.4839Z" fill="inherit"/>
</svg>
