<svg width="24" height="24" viewBox="0 0 24 24" fill="none" xmlns="http://www.w3.org/2000/svg">
<g clip-path="url(#clip0_1607_38482)">
<path d="M21.2499 22.0156H2.75006C1.23303 22.0156 0 20.7826 0 19.2656V6.7655C0 5.24847 1.23303 4.01562 2.75006 4.01562H8.75006C9.16406 4.01562 9.50006 4.35162 9.50006 4.76562C9.50006 5.17963 9.16406 5.51562 8.75006 5.51562H2.75006C2.06104 5.51562 1.5 6.07648 1.5 6.7655V19.2656C1.5 19.9546 2.06104 20.5156 2.75006 20.5156H21.2499C21.939 20.5156 22.5 19.9546 22.5 19.2656V6.7655C22.5 6.07648 21.939 5.51562 21.2499 5.51562H15.2499C14.8359 5.51562 14.4999 5.17963 14.4999 4.76562C14.4999 4.35162 14.8359 4.01562 15.2499 4.01562H21.2499C22.767 4.01562 24 5.24847 24 6.7655V19.2656C24 20.7826 22.767 22.0156 21.2499 22.0156Z" fill="black"/>
<path d="M14.2499 7.51556H9.74994C8.78497 7.51556 8 6.73059 8 5.76562V3.76556C8 2.8006 8.78497 2.01562 9.74994 2.01562H14.2499C15.2149 2.01562 15.9999 2.8006 15.9999 3.76556V5.76562C15.9999 6.73059 15.2149 7.51556 14.2499 7.51556ZM9.74994 3.51562C9.61188 3.51562 9.5 3.62769 9.5 3.76556V5.76562C9.5 5.90369 9.61188 6.01556 9.74994 6.01556H14.2499C14.388 6.01556 14.4999 5.90369 14.4999 5.76562V3.76556C14.4999 3.62769 14.388 3.51562 14.2499 3.51562H9.74994Z" fill="black"/>
<path d="M7.49994 14.0157C6.12189 14.0157 5 12.8936 5 11.5157C5 10.1377 6.12189 9.01562 7.49994 9.01562C8.87799 9.01562 9.99988 10.1377 9.99988 11.5157C9.99988 12.8936 8.87799 14.0157 7.49994 14.0157ZM7.49994 10.5156C6.94897 10.5156 6.5 10.9646 6.5 11.5157C6.5 12.0667 6.94897 12.5157 7.49994 12.5157C8.0509 12.5157 8.49988 12.0667 8.49988 11.5157C8.49988 10.9646 8.0509 10.5156 7.49994 10.5156Z" fill="black"/>
<path d="M11.25 19.0157C10.836 19.0157 10.5 18.6797 10.5 18.2657V17.7657C10.5 17.0767 9.93896 16.5156 9.24994 16.5156H5.75006C5.06104 16.5156 4.5 17.0767 4.5 17.7657V18.2657C4.5 18.6797 4.164 19.0157 3.75 19.0157C3.336 19.0157 3 18.6797 3 18.2657V17.7657C3 16.2487 4.23303 15.0156 5.75006 15.0156H9.24994C10.767 15.0156 12 16.2487 12 17.7657V18.2657C12 18.6797 11.664 19.0157 11.25 19.0157Z" fill="black"/>
<path d="M20.2499 11.0156H14.75C14.336 11.0156 14 10.6796 14 10.2656C14 9.85162 14.336 9.51562 14.75 9.51562H20.2499C20.6639 9.51562 20.9999 9.85162 20.9999 10.2656C20.9999 10.6796 20.6639 11.0156 20.2499 11.0156Z" fill="black"/>
<path d="M20.2499 15.0156H14.75C14.336 15.0156 14 14.6796 14 14.2656C14 13.8516 14.336 13.5156 14.75 13.5156H20.2499C20.6639 13.5156 20.9999 13.8516 20.9999 14.2656C20.9999 14.6796 20.6639 15.0156 20.2499 15.0156Z" fill="black"/>
<path d="M20.2499 19.0156H14.75C14.336 19.0156 14 18.6796 14 18.2656C14 17.8516 14.336 17.5156 14.75 17.5156H20.2499C20.6639 17.5156 20.9999 17.8516 20.9999 18.2656C20.9999 18.6796 20.6639 19.0156 20.2499 19.0156Z" fill="black"/>
</g>
<defs>
<clipPath id="clip0_1607_38482">
<rect width="24" height="24" fill="white"/>
</clipPath>
</defs>
</svg>
