<svg width="33" height="33" viewBox="0 0 33 33" fill="none" xmlns="http://www.w3.org/2000/svg">
<path d="M16.501 0C13.2376 0 10.0475 0.967708 7.33407 2.78075C4.62066 4.59379 2.50582 7.17074 1.25697 10.1857C0.00812575 13.2007 -0.318629 16.5183 0.318027 19.719C0.954683 22.9197 2.52615 25.8597 4.83372 28.1673C7.14129 30.4748 10.0813 32.0463 13.282 32.6829C16.4827 33.3196 19.8003 32.9929 22.8153 31.744C25.8302 30.4952 28.4072 28.3803 30.2202 25.6669C32.0333 22.9535 33.001 19.7634 33.001 16.5C33.001 14.3332 32.5742 12.1876 31.745 10.1857C30.9158 8.18385 29.7004 6.3649 28.1682 4.83274C26.6361 3.30057 24.8171 2.08519 22.8153 1.25599C20.8134 0.426785 18.6678 0 16.501 0ZM20.131 22.8838C19.4722 23.5401 18.6181 23.9645 17.6972 24.0933V24.75C17.6972 25.0782 17.5669 25.393 17.3348 25.625C17.1027 25.8571 16.7879 25.9875 16.4597 25.9875C16.1315 25.9875 15.8168 25.8571 15.5847 25.625C15.3526 25.393 15.2222 25.0782 15.2222 24.75V24.09C14.2909 23.9392 13.4345 23.4877 12.7839 22.8046C12.1332 22.1214 11.7239 21.2441 11.6186 20.3065C11.5953 20.1426 11.6051 19.9756 11.6474 19.8155C11.6898 19.6554 11.7639 19.5054 11.8653 19.3744C11.9667 19.2435 12.0933 19.1342 12.2377 19.0531C12.3821 18.972 12.5413 18.9207 12.7059 18.9022C12.8705 18.8838 13.0371 18.8985 13.1959 18.9457C13.3547 18.9928 13.5024 19.0713 13.6303 19.1766C13.7581 19.2819 13.8636 19.4117 13.9403 19.5585C14.0171 19.7052 14.0636 19.8659 14.0771 20.031C14.1278 20.4842 14.3435 20.9029 14.6831 21.2072C15.0228 21.5115 15.4625 21.6802 15.9185 21.681H17.0735C17.5252 21.6801 17.9609 21.5143 18.2989 21.2147C18.6369 20.9151 18.8538 20.5025 18.9089 20.0542C18.9641 19.6059 18.8536 19.153 18.5982 18.7805C18.3429 18.4079 17.9603 18.1415 17.5223 18.0312L14.8691 17.3712C13.9311 17.1338 13.0986 16.591 12.503 15.8284C12.0406 15.2367 11.7406 14.5345 11.6327 13.7913C11.5248 13.048 11.6128 12.2895 11.888 11.5907C12.1631 10.8919 12.6159 10.2771 13.2016 9.80689C13.7872 9.33674 14.4854 9.02758 15.2272 8.91V8.25C15.2272 7.92179 15.3576 7.60703 15.5896 7.37495C15.8217 7.14288 16.1365 7.0125 16.4647 7.0125C16.7929 7.0125 17.1076 7.14288 17.3397 7.37495C17.5718 7.60703 17.7022 7.92179 17.7022 8.25V8.91C18.6487 9.04623 19.5231 9.49278 20.1885 10.1796C20.8538 10.8664 21.2723 11.7547 21.3784 12.705C21.4017 12.869 21.3919 13.036 21.3496 13.1961C21.3072 13.3562 21.2331 13.5062 21.1318 13.6371C21.0304 13.7681 20.9037 13.8774 20.7593 13.9585C20.6149 14.0396 20.4557 14.0909 20.2911 14.1093C20.1265 14.1278 19.9599 14.113 19.8011 14.0659C19.6423 14.0187 19.4946 13.9402 19.3667 13.835C19.2389 13.7297 19.1334 13.5998 19.0567 13.4531C18.9799 13.3063 18.9334 13.1456 18.9199 12.9805C18.8692 12.5274 18.6535 12.1087 18.3139 11.8043C17.9743 11.5 17.5345 11.3314 17.0785 11.3305H15.9235C15.4326 11.331 14.962 11.5262 14.6149 11.8733C14.2678 12.2204 14.0726 12.691 14.0722 13.1818C14.0692 13.5912 14.2047 13.9895 14.4566 14.3121C14.7107 14.6435 15.0696 14.879 15.4747 14.9803L18.1279 15.6403C18.8715 15.8254 19.5526 16.2048 20.1015 16.7396C20.6503 17.2744 21.0472 17.9455 21.2515 18.6841C21.4558 19.4227 21.4601 20.2023 21.2641 20.9431C21.0681 21.684 20.6788 22.3594 20.1359 22.9003L20.131 22.8838Z" fill="#F5F7FB"/>
</svg>
