<svg width="18" height="18" viewBox="0 0 18 18" fill="none" xmlns="http://www.w3.org/2000/svg">
<path d="M17.2414 1.29997L16.6498 0.708301C15.7581 -0.183366 14.2998 -0.183366 13.4081 0.708301L4.81642 9.31664C4.57476 9.5583 4.42476 9.87497 4.39142 10.2166L4.16642 12.6583C4.14142 12.9666 4.24976 13.2666 4.46642 13.4916C4.66642 13.6916 4.92476 13.8 5.19976 13.8H5.29142L7.73309 13.575C8.07476 13.5416 8.39142 13.3916 8.63309 13.15L17.2331 4.54997C17.6664 4.11663 17.9081 3.54163 17.9081 2.9333C17.9081 2.32497 17.6664 1.74163 17.2331 1.31663L17.2414 1.29997ZM7.75809 12.2583C7.75809 12.2583 7.67476 12.3166 7.63309 12.3166L5.44142 12.5166L5.64142 10.325C5.64142 10.275 5.66642 10.2333 5.69976 10.1916L12.6831 3.2083L14.7414 5.26663L7.75809 12.25V12.2583ZM16.3581 3.6583L15.6248 4.39163L13.5664 2.3333L14.2998 1.59997C14.4998 1.39997 14.7664 1.29163 15.0331 1.29163C15.2998 1.29163 15.5664 1.39163 15.7664 1.59997L16.3581 2.19163C16.5581 2.39163 16.6664 2.64997 16.6664 2.92497C16.6664 3.19997 16.5581 3.46663 16.3581 3.6583ZM16.2498 9.99164V14.8333C16.2498 16.5583 14.8498 17.9583 13.1248 17.9583H3.12476C1.39976 17.9583 -0.000244141 16.5583 -0.000244141 14.8333V4.8333C-0.000244141 3.1083 1.39976 1.7083 3.12476 1.7083H7.96642C8.30809 1.7083 8.59142 1.99163 8.59142 2.3333C8.59142 2.67497 8.30809 2.9583 7.96642 2.9583H3.12476C2.09142 2.9583 1.24976 3.79997 1.24976 4.8333V14.8333C1.24976 15.8666 2.09142 16.7083 3.12476 16.7083H13.1248C14.1581 16.7083 14.9998 15.8666 14.9998 14.8333V9.99164C14.9998 9.64997 15.2831 9.36664 15.6248 9.36664C15.9664 9.36664 16.2498 9.64997 16.2498 9.99164Z" fill="black"/>
</svg>
