<svg width="24" height="24" viewBox="0 0 24 24" fill="none" xmlns="http://www.w3.org/2000/svg">
<g clip-path="url(#clip0_1607_38527)">
<path d="M10.75 17V22C10.75 22.4141 10.4141 22.75 10 22.75C9.58594 22.75 9.25 22.4141 9.25 22V18.8106L8.53027 19.5303C8.2373 19.8232 7.76269 19.8232 7.46972 19.5303L6.74999 18.8106V22C6.74999 22.4141 6.41405 22.75 5.99999 22.75C5.58593 22.75 5.24999 22.4141 5.24999 22V17C5.24999 16.6963 5.43261 16.4229 5.71288 16.3066C5.99364 16.1924 6.31542 16.2559 6.53026 16.4697L7.99999 17.9395L9.46972 16.4697C9.68505 16.2549 10.0078 16.1924 10.2871 16.3066C10.5674 16.4229 10.75 16.6963 10.75 17ZM16.75 19V20C16.75 20.4853 16.613 20.9348 16.3915 21.331L16.5303 21.4697C16.8232 21.7627 16.8232 22.2373 16.5303 22.5303C16.3838 22.6768 16.1919 22.75 16 22.75C15.8081 22.75 15.6162 22.6768 15.4697 22.5303L15.331 22.3915C14.9348 22.613 14.4853 22.75 14 22.75C12.4834 22.75 11.25 21.5166 11.25 20V19C11.25 17.4834 12.4834 16.25 14 16.25C15.5166 16.25 16.75 17.4834 16.75 19ZM15.25 19C15.25 18.3106 14.6895 17.75 14 17.75C13.3105 17.75 12.75 18.3106 12.75 19V20C12.75 20.6894 13.3105 21.25 14 21.25C14.0559 21.25 14.1036 21.2253 14.1576 21.2181L13.4697 20.5303C13.1768 20.2373 13.1768 19.7627 13.4697 19.4697C13.7627 19.1768 14.2373 19.1768 14.5303 19.4697L15.2181 20.1576C15.2253 20.1036 15.25 20.0558 15.25 20V19ZM22.6963 21.7217L20.6963 16.7217C20.4688 16.1514 19.5312 16.1514 19.3037 16.7217L17.3037 21.7217C17.1499 22.1064 17.3369 22.543 17.7217 22.6963C18.106 22.8496 18.5425 22.6631 18.6963 22.2783L19.3077 20.75H20.6923L21.3037 22.2783C21.4209 22.5723 21.7026 22.75 22 22.75C22.0928 22.75 22.187 22.7324 22.2783 22.6963C22.6631 22.543 22.8501 22.1064 22.6963 21.7217ZM4 22C4 22.2657 4.05426 22.5181 4.14832 22.75H4C2.4834 22.75 1.25 21.5166 1.25 20V4C1.25 2.4834 2.4834 1.25 4 1.25H12.1714C12.9063 1.25 13.5967 1.53613 14.1162 2.05566L17.9443 5.88378C18.4639 6.40331 18.75 7.09374 18.75 7.82812V15.4619C18.4913 15.6721 18.2723 15.9339 18.1431 16.2568L17.6753 17.4262C17.5616 17.1619 17.4153 16.9165 17.25 16.685V8.74999H14C12.4834 8.74999 11.25 7.51659 11.25 5.99999V2.74999H4C3.31055 2.74999 2.75 3.31054 2.75 3.99999V20C2.75 20.6894 3.31055 21.25 4 21.25V22ZM12.75 6C12.75 6.68945 13.3105 7.25 14 7.25H17.0876C17.0299 7.14136 16.9716 7.03192 16.8838 6.94434L13.0557 3.11622C12.9666 3.02717 12.858 2.96894 12.75 2.91139L12.75 6Z" fill="black"/>
<rect width="18" height="10" transform="translate(5 15)" fill="#F5F5F5"/>
<path d="M11.03 20.01V22.09C11.03 22.2767 10.9933 22.42 10.92 22.52C10.8533 22.6133 10.74 22.7033 10.58 22.79C10.4 22.89 10.14 22.9767 9.8 23.05C9.46 23.13 9.12 23.17 8.78 23.17C8.14 23.17 7.56333 23.06 7.05 22.84C6.54333 22.6133 6.14 22.2667 5.84 21.8C5.54667 21.3267 5.4 20.72 5.4 19.98C5.4 19.2733 5.55 18.6833 5.85 18.21C6.15 17.73 6.55333 17.37 7.06 17.13C7.57333 16.8833 8.14 16.76 8.76 16.76C9.17333 16.76 9.53 16.8033 9.83 16.89C10.1367 16.9767 10.37 17.0967 10.53 17.25C10.6967 17.4033 10.78 17.58 10.78 17.78C10.78 17.9267 10.74 18.06 10.66 18.18C10.5867 18.2933 10.4967 18.38 10.39 18.44C10.2233 18.3333 10.0133 18.2333 9.76 18.14C9.50667 18.0467 9.21 18 8.87 18C8.50333 18 8.17333 18.08 7.88 18.24C7.59333 18.3933 7.37 18.62 7.21 18.92C7.05 19.2133 6.97 19.5633 6.97 19.97C6.97 20.41 7.04667 20.7767 7.2 21.07C7.36 21.3633 7.57667 21.5833 7.85 21.73C8.13 21.87 8.44667 21.94 8.8 21.94C8.96667 21.94 9.11667 21.9233 9.25 21.89C9.39 21.8567 9.49667 21.8233 9.57 21.79V20.62H8.4C8.36 20.5533 8.32333 20.47 8.29 20.37C8.25667 20.2633 8.24 20.15 8.24 20.03C8.24 19.8233 8.28667 19.6733 8.38 19.58C8.48 19.48 8.61 19.43 8.77 19.43H10.45C10.63 19.43 10.77 19.48 10.87 19.58C10.9767 19.68 11.03 19.8233 11.03 20.01ZM14.0532 21.93C14.4132 21.93 14.6699 21.8667 14.8232 21.74C14.9832 21.6067 15.0632 21.45 15.0632 21.27C15.0632 21.1033 14.9999 20.97 14.8732 20.87C14.7532 20.7633 14.5732 20.6733 14.3332 20.6L13.8032 20.43C13.4432 20.31 13.1232 20.1767 12.8432 20.03C12.5699 19.8833 12.3565 19.6933 12.2032 19.46C12.0565 19.2267 11.9832 18.93 11.9832 18.57C11.9832 18.0167 12.1932 17.5767 12.6132 17.25C13.0332 16.9233 13.6165 16.76 14.3632 16.76C14.7432 16.76 15.0799 16.7967 15.3732 16.87C15.6732 16.9433 15.9065 17.0533 16.0732 17.2C16.2465 17.34 16.3332 17.5133 16.3332 17.72C16.3332 17.8733 16.2965 18.0067 16.2232 18.12C16.1565 18.2267 16.0699 18.32 15.9632 18.4C15.8099 18.2933 15.6065 18.2033 15.3532 18.13C15.0999 18.05 14.8199 18.01 14.5132 18.01C14.1932 18.01 13.9532 18.0633 13.7932 18.17C13.6332 18.27 13.5532 18.4033 13.5532 18.57C13.5532 18.7033 13.6065 18.8133 13.7132 18.9C13.8199 18.98 13.9799 19.0533 14.1932 19.12L14.7432 19.29C15.3499 19.4767 15.8165 19.7267 16.1432 20.04C16.4699 20.3467 16.6332 20.76 16.6332 21.28C16.6332 21.84 16.4165 22.2967 15.9832 22.65C15.5499 22.9967 14.9232 23.17 14.1032 23.17C13.6965 23.17 13.3332 23.1267 13.0132 23.04C12.6932 22.9533 12.4365 22.8267 12.2432 22.66C12.0565 22.4933 11.9632 22.3 11.9632 22.08C11.9632 21.9067 12.0132 21.76 12.1132 21.64C12.2199 21.5133 12.3365 21.42 12.4632 21.36C12.6432 21.5067 12.8665 21.64 13.1332 21.76C13.4065 21.8733 13.7132 21.93 14.0532 21.93ZM18.8659 18.16L18.8559 16.94H21.9459C21.9859 17 22.0226 17.0833 22.0559 17.19C22.0893 17.2967 22.1059 17.41 22.1059 17.53C22.1059 17.7433 22.0559 17.9033 21.9559 18.01C21.8626 18.11 21.7326 18.16 21.5659 18.16H18.8659ZM20.2759 16.94L20.2859 18.16H17.1959C17.1493 18.1 17.1093 18.0167 17.0759 17.91C17.0493 17.8033 17.0359 17.69 17.0359 17.57C17.0359 17.35 17.0826 17.19 17.1759 17.09C17.2759 16.99 17.4059 16.94 17.5659 16.94H20.2759ZM18.7859 17.89H20.3159V22.99C20.2493 23.01 20.1493 23.0267 20.0159 23.04C19.8826 23.06 19.7459 23.07 19.6059 23.07C19.3059 23.07 19.0926 23.0167 18.9659 22.91C18.8459 22.8033 18.7859 22.6167 18.7859 22.35V17.89Z" fill="black"/>
</g>
<defs>
<clipPath id="clip0_1607_38527">
<rect width="24" height="24" fill="white"/>
</clipPath>
</defs>
</svg>
