<svg width="24" height="24" viewBox="0 0 24 24" fill="none" xmlns="http://www.w3.org/2000/svg">
<path fill-rule="evenodd" clip-rule="evenodd" d="M12 1.5C8.2815 1.5 5.25 4.60275 5.25 8.4375C5.25 10.4985 6.252 12.6863 7.485 14.559C9.267 17.2628 11.493 19.302 11.493 19.302C11.7795 19.5653 12.2205 19.5653 12.507 19.302C12.507 19.302 14.733 17.2628 16.515 14.559C17.748 12.6863 18.75 10.4985 18.75 8.4375C18.75 4.60275 15.7185 1.5 12 1.5ZM12 3C14.904 3 17.25 5.44275 17.25 8.4375C17.25 10.2262 16.3312 12.1095 15.261 13.7347C14.0932 15.507 12.723 16.9762 12 17.7038C11.277 16.9762 9.90675 15.507 8.739 13.7347C7.66875 12.1095 6.75 10.2262 6.75 8.4375C6.75 5.44275 9.096 3 12 3ZM12 4.5C9.93075 4.5 8.25 6.18075 8.25 8.25C8.25 10.3193 9.93075 12 12 12C14.0693 12 15.75 10.3193 15.75 8.25C15.75 6.18075 14.0693 4.5 12 4.5ZM12 6C13.242 6 14.25 7.008 14.25 8.25C14.25 9.492 13.242 10.5 12 10.5C10.758 10.5 9.75 9.492 9.75 8.25C9.75 7.008 10.758 6 12 6ZM7.45875 16.2758C7.40925 16.2788 7.35975 16.2877 7.3095 16.3005C6.078 16.6245 5.1165 17.0813 4.53675 17.5882C4.00275 18.057 3.75 18.5903 3.75 19.125C3.75 19.7663 4.128 20.4187 4.91925 20.9535C6.2475 21.8498 8.91675 22.5 12 22.5C15.0833 22.5 17.7525 21.8498 19.0807 20.9535C19.872 20.4187 20.25 19.7663 20.25 19.125C20.25 18.5903 19.9972 18.057 19.4633 17.5882C18.8835 17.0813 17.922 16.6245 16.6905 16.3005C16.2907 16.1947 15.8798 16.434 15.7748 16.8353C15.669 17.2358 15.909 17.646 16.3095 17.751C17.121 17.9655 17.793 18.2332 18.2595 18.552C18.5318 18.7395 18.75 18.9015 18.75 19.125C18.75 19.2383 18.6713 19.335 18.5745 19.437C18.3788 19.6425 18.0877 19.827 17.7292 19.998C16.437 20.6152 14.3497 21 12 21C9.65025 21 7.563 20.6152 6.27075 19.998C5.91225 19.827 5.62125 19.6425 5.4255 19.437C5.32875 19.335 5.25 19.2383 5.25 19.125C5.25 18.9015 5.46825 18.7395 5.7405 18.552C6.207 18.2332 6.879 17.9655 7.6905 17.751C8.091 17.646 8.331 17.2358 8.22525 16.8353C8.133 16.4843 7.80675 16.2563 7.45875 16.2758Z" fill="black"/>
</svg>
