<svg width="24" height="24" viewBox="0 0 24 24" fill="none" xmlns="http://www.w3.org/2000/svg">
<path d="M10.5 17.25C10.6989 17.25 10.8897 17.171 11.0303 17.0303C11.171 16.8897 11.25 16.6989 11.25 16.5C11.25 16.3011 11.171 16.1103 11.0303 15.9697C10.8897 15.829 10.6989 15.75 10.5 15.75H3C2.80112 15.7499 2.61043 15.6708 2.4698 15.5302C2.32918 15.3896 2.25012 15.1989 2.25 15V5.8056L9.36405 9.95655C9.70862 10.1556 10.0995 10.2604 10.4974 10.2604C10.8954 10.2604 11.2863 10.1556 11.6308 9.95655L18.75 5.8026V9C18.75 9.19891 18.829 9.38968 18.9697 9.53033C19.1103 9.67098 19.3011 9.75 19.5 9.75C19.6989 9.75 19.8897 9.67098 20.0303 9.53033C20.171 9.38968 20.25 9.19891 20.25 9V4.5C20.2493 3.90346 20.0121 3.33155 19.5903 2.90973C19.1685 2.48792 18.5965 2.25066 18 2.25H3C2.6392 2.25164 2.28406 2.33984 1.96442 2.50721C1.64478 2.67457 1.36998 2.9162 1.1631 3.2118C0.899932 3.59035 0.756061 4.039 0.75 4.5V15C0.750655 15.5965 0.987918 16.1685 1.40973 16.5903C1.83155 17.0121 2.40346 17.2493 3 17.25H10.5ZM3 3.75H18C18.1307 3.75147 18.2587 3.78752 18.371 3.8545C18.4832 3.92147 18.5758 4.01697 18.6391 4.1313L10.875 8.6616C10.7601 8.72764 10.6299 8.76239 10.4974 8.76239C10.365 8.76239 10.2348 8.72764 10.1199 8.6616L2.35943 4.13348C2.42265 4.01853 2.51528 3.92246 2.62783 3.85508C2.74039 3.7877 2.86883 3.75143 3 3.75Z" fill="black"/>
<path d="M18 11.25C16.6076 11.25 15.2723 11.8031 14.2877 12.7877C13.3031 13.7723 12.75 15.1076 12.75 16.5C12.75 17.8924 13.3031 19.2277 14.2877 20.2123C15.2723 21.1969 16.6076 21.75 18 21.75C18.1989 21.75 18.3897 21.671 18.5303 21.5303C18.671 21.3897 18.75 21.1989 18.75 21C18.75 20.8011 18.671 20.6103 18.5303 20.4697C18.3897 20.329 18.1989 20.25 18 20.25C17.2583 20.25 16.5333 20.0301 15.9166 19.618C15.2999 19.206 14.8193 18.6203 14.5355 17.9351C14.2516 17.2498 14.1774 16.4958 14.3221 15.7684C14.4667 15.041 14.8239 14.3728 15.3483 13.8483C15.8728 13.3239 16.541 12.9667 17.2684 12.8221C17.9958 12.6774 18.7498 12.7516 19.4351 13.0355C20.1203 13.3193 20.706 13.7999 21.118 14.4166C21.5301 15.0333 21.75 15.7583 21.75 16.5V17.25C21.75 17.4489 21.671 17.6397 21.5303 17.7803C21.3897 17.921 21.1989 18 21 18C20.8011 18 20.6103 17.921 20.4697 17.7803C20.329 17.6397 20.25 17.4489 20.25 17.25V16.5C20.25 16.055 20.118 15.62 19.8708 15.25C19.6236 14.88 19.2722 14.5916 18.861 14.4213C18.4499 14.251 17.9975 14.2064 17.561 14.2932C17.1246 14.38 16.7237 14.5943 16.409 14.909C16.0943 15.2237 15.88 15.6246 15.7932 16.061C15.7064 16.4975 15.751 16.9499 15.9213 17.361C16.0916 17.7722 16.38 18.1236 16.75 18.3708C17.12 18.618 17.555 18.75 18 18.75C18.3877 18.7476 18.7679 18.6438 19.1031 18.449C19.3624 18.8618 19.7491 19.1791 20.2046 19.3528C20.6602 19.5265 21.1599 19.5472 21.6282 19.4117C22.0966 19.2763 22.5082 18.9922 22.8007 18.6022C23.0933 18.2122 23.251 17.7375 23.25 17.25V16.5C23.2483 15.1081 22.6946 13.7738 21.7104 12.7896C20.7262 11.8054 19.3919 11.2517 18 11.25ZM18 17.25C17.8517 17.25 17.7067 17.206 17.5833 17.1236C17.46 17.0412 17.3639 16.9241 17.3071 16.787C17.2503 16.65 17.2355 16.4992 17.2644 16.3537C17.2933 16.2082 17.3648 16.0746 17.4697 15.9697C17.5746 15.8648 17.7082 15.7933 17.8537 15.7644C17.9992 15.7355 18.15 15.7503 18.287 15.8071C18.4241 15.8639 18.5412 15.96 18.6236 16.0833C18.706 16.2067 18.75 16.3517 18.75 16.5C18.7499 16.6989 18.6708 16.8896 18.5302 17.0302C18.3896 17.1708 18.1989 17.2499 18 17.25Z" fill="black"/>
</svg>
