<svg width="36" height="36" viewBox="0 0 36 36" fill="none" xmlns="http://www.w3.org/2000/svg">
<path fill-rule="evenodd" clip-rule="evenodd" d="M5.68726 26.75C5.68726 26.4599 5.80249 26.1817 6.00761 25.9766C6.21273 25.7715 6.49093 25.6562 6.78101 25.6562H28.656C28.9461 25.6562 29.2243 25.7715 29.4294 25.9766C29.6345 26.1817 29.7498 26.4599 29.7498 26.75C29.7498 27.0401 29.6345 27.3183 29.4294 27.5234C29.2243 27.7285 28.9461 27.8438 28.656 27.8438H6.78101C6.49093 27.8438 6.21273 27.7285 6.00761 27.5234C5.80249 27.3183 5.68726 27.0401 5.68726 26.75ZM5.68726 18C5.68726 17.7099 5.80249 17.4317 6.00761 17.2266C6.21273 17.0215 6.49093 16.9062 6.78101 16.9062H28.656C28.9461 16.9062 29.2243 17.0215 29.4294 17.2266C29.6345 17.4317 29.7498 17.7099 29.7498 18C29.7498 18.2901 29.6345 18.5683 29.4294 18.7734C29.2243 18.9785 28.9461 19.0938 28.656 19.0938H6.78101C6.49093 19.0938 6.21273 18.9785 6.00761 18.7734C5.80249 18.5683 5.68726 18.2901 5.68726 18ZM5.68726 9.25C5.68726 8.95992 5.80249 8.68172 6.00761 8.4766C6.21273 8.27148 6.49093 8.15625 6.78101 8.15625H28.656C28.9461 8.15625 29.2243 8.27148 29.4294 8.4766C29.6345 8.68172 29.7498 8.95992 29.7498 9.25C29.7498 9.54008 29.6345 9.81828 29.4294 10.0234C29.2243 10.2285 28.9461 10.3438 28.656 10.3438H6.78101C6.49093 10.3438 6.21273 10.2285 6.00761 10.0234C5.80249 9.81828 5.68726 9.54008 5.68726 9.25Z" fill="white"/>
</svg>
