<svg width="24" height="24" viewBox="0 0 24 24" fill="none" xmlns="http://www.w3.org/2000/svg">
<g clip-path="url(#clip0_1607_38536)">
<path d="M23.2966 9.047H20.5779V5.25016C20.5779 5.0621 20.5004 4.8814 20.372 4.75301C20.372 4.74832 15.8536 0.187571 15.8266 0.164837C15.7219 0.0769001 15.591 0.0204163 15.4538 0.00490078C15.3962 -0.00152104 15.9746 0.000213323 4.82808 0.000213323C4.05268 0.000213323 3.42184 0.631051 3.42184 1.40645V9.047H0.703118C0.314809 9.047 0 9.36181 0 9.75012V20.25C0 20.6383 0.314809 20.9531 0.703118 20.9531H3.42184V22.5937C3.42184 23.3691 4.05268 24 4.82808 24H19.1717C19.9471 24 20.5779 23.3691 20.5779 22.5937V20.9531H23.2966C23.685 20.9531 23.9998 20.6383 23.9998 20.25V9.75012C23.9998 9.36176 23.685 9.047 23.2966 9.047ZM16.078 2.44767L18.1773 4.54704H16.078V2.44767ZM4.82808 1.40645H14.6717V5.25016C14.6717 5.63847 14.9865 5.95328 15.3748 5.95328H19.1717V9.047H4.82808V1.40645ZM19.1717 22.5937H4.82808V20.9531H19.1717V22.5937ZM22.5935 19.5469H1.40624V10.4532H22.5935V19.5469Z" fill="black"/>
<path d="M3.71 13.67L5.09 13.65C5.11667 13.9367 5.13667 14.22 5.15 14.5C5.16333 14.78 5.17 15.05 5.17 15.31C5.17667 15.57 5.18 15.8233 5.18 16.07V18C5.12 18.0133 5.02333 18.0267 4.89 18.04C4.76333 18.06 4.63333 18.07 4.5 18.07C4.20667 18.07 4 18.02 3.88 17.92C3.76667 17.82 3.71 17.64 3.71 17.38V13.67ZM9.04 16.24L7.65 16.25C7.60333 15.7633 7.57667 15.3 7.57 14.86C7.56333 14.42 7.56 14 7.56 13.6V11.92C7.62667 11.9067 7.72333 11.89 7.85 11.87C7.97667 11.85 8.11 11.84 8.25 11.84C8.53667 11.84 8.74 11.8933 8.86 12C8.98 12.1 9.04 12.2767 9.04 12.53V16.24ZM9.04 15.76V17.81C8.95333 17.89 8.83 17.9533 8.67 18C8.51667 18.0533 8.33333 18.08 8.12 18.08C7.89333 18.08 7.68 18.0433 7.48 17.97C7.28667 17.8967 7.12667 17.7333 7 17.48L5.79 15.18C5.71667 15.0333 5.64333 14.8867 5.57 14.74C5.50333 14.5933 5.43667 14.4467 5.37 14.3C5.30333 14.1467 5.23667 13.9933 5.17 13.84L3.71 14.17V12.2C3.79 12.0867 3.91333 12 4.08 11.94C4.25333 11.88 4.44 11.85 4.64 11.85C4.86 11.85 5.06667 11.8867 5.26 11.96C5.46 12.0333 5.62333 12.1933 5.75 12.44L6.97 14.75C7.04333 14.89 7.11667 15.0367 7.19 15.19C7.26333 15.3367 7.33333 15.4833 7.4 15.63C7.46667 15.7767 7.53 15.9267 7.59 16.08L9.04 15.76ZM11.7683 13.16L11.7583 11.94H14.8483C14.8883 12 14.9249 12.0833 14.9583 12.19C14.9916 12.2967 15.0083 12.41 15.0083 12.53C15.0083 12.7433 14.9583 12.9033 14.8583 13.01C14.7649 13.11 14.6349 13.16 14.4683 13.16H11.7683ZM13.1783 11.94L13.1883 13.16H10.0983C10.0516 13.1 10.0116 13.0167 9.97828 12.91C9.95161 12.8033 9.93828 12.69 9.93828 12.57C9.93828 12.35 9.98495 12.19 10.0783 12.09C10.1783 11.99 10.3083 11.94 10.4683 11.94H13.1783ZM11.6883 12.89H13.2183V17.99C13.1516 18.01 13.0516 18.0267 12.9183 18.04C12.7849 18.06 12.6483 18.07 12.5083 18.07C12.2083 18.07 11.9949 18.0167 11.8683 17.91C11.7483 17.8033 11.6883 17.6167 11.6883 17.35V12.89ZM15.9268 13.67L17.3068 13.65C17.3335 13.9367 17.3535 14.22 17.3668 14.5C17.3801 14.78 17.3868 15.05 17.3868 15.31C17.3935 15.57 17.3968 15.8233 17.3968 16.07V18C17.3368 18.0133 17.2401 18.0267 17.1068 18.04C16.9801 18.06 16.8501 18.07 16.7168 18.07C16.4235 18.07 16.2168 18.02 16.0968 17.92C15.9835 17.82 15.9268 17.64 15.9268 17.38V13.67ZM21.2568 16.24L19.8668 16.25C19.8201 15.7633 19.7935 15.3 19.7868 14.86C19.7801 14.42 19.7768 14 19.7768 13.6V11.92C19.8435 11.9067 19.9401 11.89 20.0668 11.87C20.1935 11.85 20.3268 11.84 20.4668 11.84C20.7535 11.84 20.9568 11.8933 21.0768 12C21.1968 12.1 21.2568 12.2767 21.2568 12.53V16.24ZM21.2568 15.76V17.81C21.1701 17.89 21.0468 17.9533 20.8868 18C20.7335 18.0533 20.5501 18.08 20.3368 18.08C20.1101 18.08 19.8968 18.0433 19.6968 17.97C19.5035 17.8967 19.3435 17.7333 19.2168 17.48L18.0068 15.18C17.9335 15.0333 17.8601 14.8867 17.7868 14.74C17.7201 14.5933 17.6535 14.4467 17.5868 14.3C17.5201 14.1467 17.4535 13.9933 17.3868 13.84L15.9268 14.17V12.2C16.0068 12.0867 16.1301 12 16.2968 11.94C16.4701 11.88 16.6568 11.85 16.8568 11.85C17.0768 11.85 17.2835 11.8867 17.4768 11.96C17.6768 12.0333 17.8401 12.1933 17.9668 12.44L19.1868 14.75C19.2601 14.89 19.3335 15.0367 19.4068 15.19C19.4801 15.3367 19.5501 15.4833 19.6168 15.63C19.6835 15.7767 19.7468 15.9267 19.8068 16.08L21.2568 15.76Z" fill="black"/>
<path d="M10.5 3.04688H7.125C6.73669 3.04688 6.42188 3.36169 6.42188 3.75C6.42188 4.13831 6.73669 4.45312 7.125 4.45312H10.5C10.8883 4.45312 11.2031 4.13831 11.2031 3.75C11.2031 3.36169 10.8883 3.04688 10.5 3.04688Z" fill="black"/>
<path d="M10.5 6.04688H7.125C6.73669 6.04688 6.42188 6.36169 6.42188 6.75C6.42188 7.13831 6.73669 7.45312 7.125 7.45312H10.5C10.8883 7.45312 11.2031 7.13831 11.2031 6.75C11.2031 6.36169 10.8883 6.04688 10.5 6.04688Z" fill="black"/>
</g>
<defs>
<clipPath id="clip0_1607_38536">
<rect width="24" height="24" fill="white"/>
</clipPath>
</defs>
</svg>
