<svg width="33" height="33" viewBox="0 0 33 33" fill="none" xmlns="http://www.w3.org/2000/svg">
<g clip-path="url(#clip0_789_3420)">
<path d="M32.2666 8.16244C32.2666 8.11656 32.2547 8.0716 32.2421 8.02748C32.2299 7.98472 32.2226 7.94196 32.2042 7.89921C32.1997 7.88867 32.1969 7.87741 32.1969 7.86594C32.1969 7.85447 32.1943 7.8431 32.1887 7.83313C32.1519 7.76867 32.0897 7.7064 32.0573 7.67409L32.0225 7.6392C31.9876 7.60432 31.9178 7.56944 31.8829 7.53456L31.8604 7.51201C31.8525 7.50411 31.8418 7.49968 31.8306 7.49968C31.8194 7.49968 31.8087 7.49524 31.8008 7.48734L31.7882 7.47467C31.7816 7.46813 31.7741 7.46269 31.7658 7.45858L16.9534 0.104647C16.6743 -0.0348822 16.3255 -0.0348822 16.0115 0.104647L12.7982 1.70009C12.0632 2.06503 12.0563 3.11107 12.7865 3.48556L25.9181 10.2205L25.953 10.2554C25.9878 10.2554 25.9878 10.2903 26.0227 10.2903C26.0576 10.3251 26.0576 10.36 26.0925 10.3949C26.0925 10.4298 26.0925 10.4298 26.0925 10.4647V10.4995V18.5922C26.0925 18.7317 26.0227 18.8364 25.9181 18.9062L22.9182 20.4759C22.7438 20.5805 22.5345 20.5107 22.4299 20.3363C22.395 20.3014 22.395 20.2317 22.395 20.1619V12.2437L8.8292 5.24095C7.88328 4.75267 6.76221 4.74027 5.80573 5.20752L1.26909 7.42369C1.26066 7.42781 1.25297 7.4333 1.24633 7.43993L1.23381 7.45246C1.22591 7.46036 1.2152 7.46479 1.20403 7.46479C1.19287 7.46479 1.18216 7.46923 1.17426 7.47713L1.15171 7.49968C1.11683 7.53456 1.04706 7.56944 1.01218 7.60432L0.9773 7.6392C0.912872 7.70363 0.878194 7.76806 0.818317 7.83249C0.808632 7.84291 0.802889 7.85649 0.802889 7.87072C0.802889 7.87904 0.800945 7.88726 0.79723 7.89471C0.764333 7.9607 0.733124 8.02668 0.733124 8.09267C0.733124 8.12755 0.733124 8.12755 0.733124 8.16244C0.733124 8.2322 0.698242 8.26708 0.698242 8.33685V8.37173V24.6268C0.698242 25.0105 0.907535 25.3942 1.29124 25.5687L15.9767 32.8939C16.1799 32.9955 16.416 33.0314 16.653 32.9695C16.6672 32.9658 16.6809 32.9604 16.694 32.9538C16.7269 32.9374 16.7641 32.9317 16.7992 32.9204C16.8378 32.9079 16.8696 32.8835 16.9185 32.859L31.7085 25.5338C32.0573 25.3594 32.3015 25.0105 32.3015 24.592V8.37173C32.3015 8.34879 32.2957 8.32636 32.2871 8.3051C32.2666 8.25474 32.2666 8.22079 32.2666 8.16244Z" fill="#F5F7FB"/>
</g>
<defs>
<clipPath id="clip0_789_3420">
<rect width="33" height="33" fill="white"/>
</clipPath>
</defs>
</svg>
