<svg width="16" height="16" viewBox="0 0 16 16" fill="none" xmlns="http://www.w3.org/2000/svg">
<path d="M14.8535 1.14663C15.049 1.34213 15.049 1.65813 14.8535 1.85363L11.207 5.50013H13.5C13.7765 5.50013 14 5.72413 14 6.00013C14 6.27613 13.7765 6.50013 13.5 6.50013H10C9.726 6.50013 9.5 6.27613 9.5 6.00013V2.50013C9.5 2.22413 9.7235 2.00013 10 2.00013C10.2765 2.00013 10.5 2.22413 10.5 2.50013V4.79313L14.1465 1.14663C14.342 0.951125 14.658 0.951125 14.8535 1.14663Z" fill="#B5B5B5"/>
<path d="M6.50013 10V13.5C6.50013 13.7765 6.27663 14 6.00013 14C5.72363 14 5.50013 13.7765 5.50013 13.5V11.207L1.85363 14.8535C1.65813 15.049 1.34213 15.049 1.14663 14.8535C0.951125 14.658 0.951125 14.342 1.14663 14.1465L4.79313 10.5H2.50013C2.22363 10.5 2.00013 10.2765 2.00013 10C2.00013 9.7235 2.22363 9.5 2.50013 9.5H6.00013C6.27563 9.5 6.50013 9.726 6.50013 10Z" fill="#B5B5B5"/>
<path d="M6.50013 2.50013V6.00013C6.50013 6.27763 6.27163 6.50013 6.00013 6.50013H2.50013C2.22363 6.50013 2.00013 6.27613 2.00013 6.00013C2.00013 5.72413 2.22363 5.50013 2.50013 5.50013H4.79313L1.14663 1.85363C0.951125 1.65813 0.951125 1.34213 1.14663 1.14663C1.34213 0.951125 1.65813 0.951125 1.85363 1.14663L5.50013 4.79313V2.50013C5.50013 2.22413 5.72363 2.00013 6.00013 2.00013C6.27663 2.00013 6.50013 2.22413 6.50013 2.50013Z" fill="#B5B5B5"/>
<path d="M14.8535 14.1465C15.049 14.342 15.049 14.658 14.8535 14.8535C14.658 15.049 14.342 15.049 14.1465 14.8535L10.5 11.207V13.5C10.5 13.7765 10.2765 14 10 14C9.7235 14 9.5 13.7765 9.5 13.5V10C9.5 9.7265 9.7235 9.5 10 9.5H13.5C13.7765 9.5 14 9.7235 14 10C14 10.2765 13.7765 10.5 13.5 10.5H11.207L14.8535 14.1465Z" fill="#B5B5B5"/>
</svg>
