<svg width="24" height="24" viewBox="0 0 24 24" fill="none" xmlns="http://www.w3.org/2000/svg">
<path d="M12.75 6.75C12.9489 6.75 13.1397 6.67098 13.2803 6.53033C13.421 6.38968 13.5 6.19891 13.5 6C13.5 5.80109 13.421 5.61032 13.2803 5.46967C13.1397 5.32902 12.9489 5.25 12.75 5.25H12C12 5.05109 11.921 4.86032 11.7803 4.71967C11.6397 4.57902 11.4489 4.5 11.25 4.5C11.0511 4.5 10.8603 4.57902 10.7197 4.71967C10.579 4.86032 10.5 5.05109 10.5 5.25C10.1022 5.25 9.72064 5.40804 9.43934 5.68934C9.15804 5.97064 9 6.35218 9 6.75V7.5C9 7.89782 9.15804 8.27936 9.43934 8.56066C9.72064 8.84196 10.1022 9 10.5 9H12V9.75H9.75C9.55109 9.75 9.36032 9.82902 9.21967 9.96967C9.07902 10.1103 9 10.3011 9 10.5C9 10.6989 9.07902 10.8897 9.21967 11.0303C9.36032 11.171 9.55109 11.25 9.75 11.25H10.5C10.5 11.4489 10.579 11.6397 10.7197 11.7803C10.8603 11.921 11.0511 12 11.25 12C11.4489 12 11.6397 11.921 11.7803 11.7803C11.921 11.6397 12 11.4489 12 11.25C12.3978 11.25 12.7794 11.092 13.0607 10.8107C13.342 10.5294 13.5 10.1478 13.5 9.75V9C13.5 8.60218 13.342 8.22064 13.0607 7.93934C12.7794 7.65804 12.3978 7.5 12 7.5H10.5V6.75H12.75Z" fill="black"/>
<path d="M20.7828 16.7177C20.713 16.6474 20.6301 16.5916 20.5387 16.5535C20.4473 16.5154 20.3493 16.4958 20.2503 16.4958C20.1513 16.4958 20.0532 16.5154 19.9618 16.5535C19.8704 16.5916 19.7875 16.6474 19.7178 16.7177L19.4703 16.9652C19.4171 16.3103 19.1928 15.6808 18.8199 15.1399C18.4469 14.599 17.9383 14.1655 17.3451 13.883C16.752 13.6004 16.0949 13.4787 15.4399 13.53C14.7848 13.5813 14.1548 13.8038 13.6128 14.1752C13.4609 14.2929 13.36 14.4645 13.3309 14.6544C13.3018 14.8444 13.3468 15.0382 13.4564 15.196C13.5661 15.3538 13.7322 15.4635 13.9204 15.5024C14.1085 15.5413 14.3045 15.5065 14.4678 15.4052C14.844 15.1426 15.2915 15.0013 15.7503 15.0002C16.2918 14.9938 16.8174 15.1829 17.2307 15.5328C17.644 15.8828 17.9173 16.37 18.0003 16.9052L17.8203 16.7177C17.679 16.5765 17.4875 16.4971 17.2878 16.4971C17.088 16.4971 16.8965 16.5765 16.7553 16.7177C16.614 16.8589 16.5347 17.0505 16.5347 17.2502C16.5347 17.4499 16.614 17.6414 16.7553 17.7827L18.2553 19.2827C18.325 19.353 18.4079 19.4088 18.4993 19.4468C18.5907 19.4849 18.6888 19.5045 18.7878 19.5045C18.8868 19.5045 18.9848 19.4849 19.0762 19.4468C19.1676 19.4088 19.2505 19.353 19.3203 19.2827L20.8203 17.7827C20.8882 17.7105 20.9411 17.6256 20.976 17.5329C21.0109 17.4401 21.027 17.3414 21.0236 17.2424C21.0201 17.1433 20.997 17.046 20.9557 16.9559C20.9143 16.8659 20.8556 16.7849 20.7828 16.7177Z" fill="black"/>
<path d="M17.0317 20.5954C16.6555 20.858 16.208 20.9994 15.7492 21.0004C15.2141 20.9979 14.6975 20.8047 14.292 20.4555C13.8865 20.1064 13.6187 19.6242 13.5367 19.0954L13.7167 19.2829C13.7864 19.3532 13.8693 19.409 13.9607 19.4471C14.0521 19.4852 14.1502 19.5048 14.2492 19.5048C14.3482 19.5048 14.4462 19.4852 14.5376 19.4471C14.629 19.409 14.7119 19.3532 14.7817 19.2829C14.852 19.2132 14.9078 19.1303 14.9458 19.0389C14.9839 18.9475 15.0035 18.8495 15.0035 18.7504C15.0035 18.6514 14.9839 18.5534 14.9458 18.462C14.9078 18.3706 14.852 18.2877 14.7817 18.2179L13.2817 16.7179C13.2119 16.6476 13.129 16.5918 13.0376 16.5538C12.9462 16.5157 12.8482 16.4961 12.7492 16.4961C12.6502 16.4961 12.5521 16.5157 12.4607 16.5538C12.3693 16.5918 12.2864 16.6476 12.2167 16.7179L10.7167 18.2179C10.5754 18.3592 10.4961 18.5507 10.4961 18.7504C10.4961 18.9502 10.5754 19.1417 10.7167 19.2829C10.8579 19.4242 11.0494 19.5035 11.2492 19.5035C11.4489 19.5035 11.6404 19.4242 11.7817 19.2829L12.0292 19.0354C12.0823 19.6903 12.3066 20.3198 12.6796 20.8607C13.0525 21.4016 13.5611 21.8351 14.1543 22.1176C14.7475 22.4002 15.4045 22.5219 16.0595 22.4706C16.7146 22.4193 17.3447 22.1969 17.8867 21.8254C17.9731 21.7718 18.0478 21.7011 18.1061 21.6176C18.1643 21.5342 18.205 21.4398 18.2256 21.3401C18.2462 21.2404 18.2463 21.1376 18.2259 21.0379C18.2056 20.9382 18.1651 20.8437 18.107 20.7601C18.0489 20.6766 17.9744 20.6057 17.8881 20.5518C17.8017 20.498 17.7053 20.4622 17.6047 20.4468C17.5041 20.4314 17.4014 20.4367 17.3029 20.4622C17.2044 20.4878 17.1121 20.5331 17.0317 20.5954Z" fill="black"/>
<path d="M10.38 20.595L9.735 20.9175L8.5575 20.3925C8.46081 20.349 8.35601 20.3266 8.25 20.3266C8.14399 20.3266 8.03919 20.349 7.9425 20.3925L6.75 20.925L5.5575 20.3925C5.46081 20.349 5.35601 20.3266 5.25 20.3266C5.14399 20.3266 5.03919 20.349 4.9425 20.3925L4.5 20.5875V3.75C4.5 3.55109 4.57902 3.36032 4.71967 3.21967C4.86032 3.07902 5.05109 3 5.25 3H17.25C17.4489 3 17.6397 3.07902 17.7803 3.21967C17.921 3.36032 18 3.55109 18 3.75V12C18 12.1989 18.079 12.3897 18.2197 12.5303C18.3603 12.671 18.5511 12.75 18.75 12.75C18.9489 12.75 19.1397 12.671 19.2803 12.5303C19.421 12.3897 19.5 12.1989 19.5 12V3.75C19.5 3.15326 19.2629 2.58097 18.841 2.15901C18.419 1.73705 17.8467 1.5 17.25 1.5H5.25C4.65326 1.5 4.08097 1.73705 3.65901 2.15901C3.23705 2.58097 3 3.15326 3 3.75V21.75C3.00021 21.8755 3.0319 21.9989 3.09218 22.109C3.15245 22.2191 3.23938 22.3122 3.345 22.38C3.46572 22.458 3.60629 22.4996 3.75 22.5C3.85612 22.4995 3.96093 22.4765 4.0575 22.4325L5.25 21.9L6.4425 22.4325C6.53919 22.476 6.64399 22.4984 6.75 22.4984C6.85601 22.4984 6.96081 22.476 7.0575 22.4325L8.25 21.9L9.4425 22.4325C9.54324 22.4805 9.65342 22.5054 9.765 22.5054C9.87658 22.5054 9.98676 22.4805 10.0875 22.4325L11.055 21.945C11.1502 21.9054 11.2362 21.8465 11.3077 21.7721C11.3791 21.6977 11.4344 21.6094 11.4702 21.5127C11.5059 21.4159 11.5213 21.3128 11.5155 21.2099C11.5096 21.1069 11.4825 21.0063 11.436 20.9142C11.3895 20.8222 11.3244 20.7407 11.245 20.6749C11.1656 20.6092 11.0734 20.5605 10.9743 20.5319C10.8752 20.5034 10.7713 20.4956 10.669 20.509C10.5668 20.5224 10.4684 20.5568 10.38 20.61V20.595Z" fill="black"/>
<path d="M12 14.25C12 14.0511 11.921 13.8603 11.7803 13.7197C11.6397 13.579 11.4489 13.5 11.25 13.5H7.5C7.30109 13.5 7.11032 13.579 6.96967 13.7197C6.82902 13.8603 6.75 14.0511 6.75 14.25C6.75 14.4489 6.82902 14.6397 6.96967 14.7803C7.11032 14.921 7.30109 15 7.5 15H11.25C11.4489 15 11.6397 14.921 11.7803 14.7803C11.921 14.6397 12 14.4489 12 14.25Z" fill="black"/>
<path d="M7.5 16.5C7.30109 16.5 7.11032 16.579 6.96967 16.7197C6.82902 16.8603 6.75 17.0511 6.75 17.25C6.75 17.4489 6.82902 17.6397 6.96967 17.7803C7.11032 17.921 7.30109 18 7.5 18H9C9.19891 18 9.38968 17.921 9.53033 17.7803C9.67098 17.6397 9.75 17.4489 9.75 17.25C9.75 17.0511 9.67098 16.8603 9.53033 16.7197C9.38968 16.579 9.19891 16.5 9 16.5H7.5Z" fill="black"/>
</svg>
