<svg width="58" height="68" viewBox="0 0 58 68" fill="none" xmlns="http://www.w3.org/2000/svg">
<path fill-rule="evenodd" clip-rule="evenodd" d="M33.3975 62.75H6.5C4.8425 62.75 3.25249 62.0925 2.07999 60.92C0.907487 59.7475 0.25 58.1575 0.25 56.5C0.25 45.2 0.25 17.8 0.25 6.5C0.25 4.8425 0.907487 3.2525 2.07999 2.08C3.25249 0.907501 4.8425 0.25 6.5 0.25H34C34.365 0.25 34.7125 0.409998 34.95 0.687498L49.95 18.1875C50.1425 18.4125 50.25 18.7025 50.25 19V41.7525C54.7 44.03 57.75 48.6625 57.75 54C57.75 61.59 51.59 67.75 44 67.75C39.735 67.75 35.92 65.8025 33.3975 62.75ZM44 42.75C50.21 42.75 55.25 47.79 55.25 54C55.25 60.21 50.21 65.25 44 65.25C37.79 65.25 32.75 60.21 32.75 54C32.75 47.79 37.79 42.75 44 42.75ZM42.75 52.0175L41.3475 53.42C40.86 53.9075 40.0675 53.9075 39.58 53.42C39.0925 52.9325 39.0925 52.14 39.58 51.6525L43.115 48.115C43.605 47.6275 44.395 47.6275 44.885 48.115L48.42 51.6525C48.9075 52.14 48.9075 52.9325 48.42 53.42C47.9325 53.9075 47.14 53.9075 46.6525 53.42L45.25 52.0175V59C45.25 59.69 44.69 60.25 44 60.25C43.31 60.25 42.75 59.69 42.75 59V52.0175ZM32.75 2.75H6.5C5.505 2.75 4.55249 3.145 3.84749 3.8475C3.14499 4.5525 2.75 5.505 2.75 6.5V56.5C2.75 57.495 3.14499 58.4475 3.84749 59.1525C4.55249 59.855 5.505 60.25 6.5 60.25H31.7525C30.7925 58.375 30.25 56.25 30.25 54C30.25 46.41 36.41 40.25 44 40.25C45.3 40.25 46.5575 40.43 47.75 40.7675V20.25H39C35.5475 20.25 32.75 17.4525 32.75 14V2.75ZM11.5 35.25H39C39.69 35.25 40.25 34.69 40.25 34C40.25 33.31 39.69 32.75 39 32.75H11.5C10.81 32.75 10.25 33.31 10.25 34C10.25 34.69 10.81 35.25 11.5 35.25ZM11.5 27.75H39C39.69 27.75 40.25 27.19 40.25 26.5C40.25 25.81 39.69 25.25 39 25.25H11.5C10.81 25.25 10.25 25.81 10.25 26.5C10.25 27.19 10.81 27.75 11.5 27.75ZM11.5 20.25H24C24.69 20.25 25.25 19.69 25.25 19C25.25 18.31 24.69 17.75 24 17.75H11.5C10.81 17.75 10.25 18.31 10.25 19C10.25 19.69 10.81 20.25 11.5 20.25ZM35.25 4.88V14C35.25 16.07 36.93 17.75 39 17.75H46.2825L35.25 4.88Z" fill="#00ACFB"/>
</svg>
