<svg width="18" height="18" viewBox="0 0 18 18" fill="none" xmlns="http://www.w3.org/2000/svg">
<path d="M0.277619 5.02491C0.0925396 5.39991 0 5.7749 0 6.14989V15.2997C0 16.7997 1.48064 17.9997 3.33143 17.9997H14.6213C16.4721 17.9997 17.9527 16.7997 17.9527 15.2997V2.69995C17.9527 1.19998 16.4721 0 14.6213 0H7.58827C7.12557 0 6.66287 0.0749987 6.20017 0.224996C5.83001 0.374993 5.55239 0.524991 5.27477 0.749987L1.01794 4.19993C0.740319 4.42492 0.462699 4.72492 0.277619 5.02491ZM7.77335 9.29984C8.05097 9.29984 8.42113 9.37484 8.69874 9.44984V4.94991C8.69874 4.64992 8.88382 4.34992 9.25398 4.27493C9.62414 4.12493 9.9943 4.19993 10.2719 4.42492L12.7705 6.44989C13.1407 6.74988 13.1407 7.19987 12.7705 7.49987C12.4003 7.79986 11.8451 7.79986 11.4749 7.49987L10.5495 6.74988V11.4748C10.5495 12.7498 9.25398 13.7248 7.77335 13.7248C6.20017 13.7248 4.99715 12.7498 4.99715 11.4748C4.99715 10.2748 6.20017 9.29984 7.77335 9.29984Z" fill="black"/>
</svg>
