<svg width="15" height="18" viewBox="0 0 15 18" fill="none" xmlns="http://www.w3.org/2000/svg">
<path fill-rule="evenodd" clip-rule="evenodd" d="M11.4 0.000183105H3C1.34315 0.000183105 0 1.34333 0 3.00019V9.58144C0.716521 8.94014 1.66272 8.55018 2.7 8.55018H14.4V3.00018C14.4 1.34333 13.0569 0.000183105 11.4 0.000183105ZM3.6 2.02518C3.22721 2.02518 2.925 2.32739 2.925 2.70018C2.925 3.07298 3.22721 3.37518 3.6 3.37518H10.8C11.1728 3.37518 11.475 3.07298 11.475 2.70018C11.475 2.32739 11.1728 2.02518 10.8 2.02518H3.6ZM2.92449 5.85008C2.92449 5.47729 3.2267 5.17508 3.59949 5.17508H7.19949C7.57228 5.17508 7.87449 5.47729 7.87449 5.85008C7.87449 6.22287 7.57228 6.52508 7.19949 6.52508H3.59949C3.2267 6.52508 2.92449 6.22287 2.92449 5.85008ZM2.7 9.90018H14.4V12.3002C14.4 13.6981 13.4439 14.8726 12.15 15.2057V12.6003C12.15 11.8547 11.5456 11.2503 10.8 11.2503H7.2C6.45442 11.2503 5.85 11.8547 5.85 12.6003V15.3002H2.7C1.20883 15.3002 0 14.0914 0 12.6002C0 11.109 1.20883 9.90018 2.7 9.90018ZM7.2 12.6002H10.8V18.0002L9 16.2002L7.2 18.0002V12.6002Z" fill="#292D32"/>
</svg>
