<svg width="18" height="18" viewBox="0 0 18 18" fill="none" xmlns="http://www.w3.org/2000/svg">
<path d="M8.18182 2.45467V5.72739C8.18182 6.37838 7.92322 7.0027 7.4629 7.46302C7.00258 7.92334 6.37826 8.18194 5.72727 8.18194H2.45455C1.80356 8.18194 1.17924 7.92334 0.71892 7.46302C0.258603 7.0027 0 6.37838 0 5.72739V2.45467C0 1.80368 0.258603 1.17936 0.71892 0.719042C1.17924 0.258725 1.80356 0.00012207 2.45455 0.00012207H5.72727C6.37826 0.00012207 7.00258 0.258725 7.4629 0.719042C7.92322 1.17936 8.18182 1.80368 8.18182 2.45467ZM15.5455 0.00012207H12.2727C11.6217 0.00012207 10.9974 0.258725 10.5371 0.719042C10.0768 1.17936 9.81818 1.80368 9.81818 2.45467V5.72739C9.81818 6.37838 10.0768 7.0027 10.5371 7.46302C10.9974 7.92334 11.6217 8.18194 12.2727 8.18194H15.5455C16.1964 8.18194 16.8208 7.92334 17.2811 7.46302C17.7414 7.0027 18 6.37838 18 5.72739V2.45467C18 1.80368 17.7414 1.17936 17.2811 0.719042C16.8208 0.258725 16.1964 0.00012207 15.5455 0.00012207ZM5.72727 9.8183H2.45455C1.80356 9.8183 1.17924 10.0769 0.71892 10.5372C0.258603 10.9975 0 11.6219 0 12.2728V15.5456C0 16.1966 0.258603 16.8209 0.71892 17.2812C1.17924 17.7415 1.80356 18.0001 2.45455 18.0001H5.72727C6.37826 18.0001 7.00258 17.7415 7.4629 17.2812C7.92322 16.8209 8.18182 16.1966 8.18182 15.5456V12.2728C8.18182 11.6219 7.92322 10.9975 7.4629 10.5372C7.00258 10.0769 6.37826 9.8183 5.72727 9.8183ZM15.5455 9.8183H12.2727C11.6217 9.8183 10.9974 10.0769 10.5371 10.5372C10.0768 10.9975 9.81818 11.6219 9.81818 12.2728V15.5456C9.81818 16.1966 10.0768 16.8209 10.5371 17.2812C10.9974 17.7415 11.6217 18.0001 12.2727 18.0001H15.5455C16.1964 18.0001 16.8208 17.7415 17.2811 17.2812C17.7414 16.8209 18 16.1966 18 15.5456V12.2728C18 11.6219 17.7414 10.9975 17.2811 10.5372C16.8208 10.0769 16.1964 9.8183 15.5455 9.8183Z" fill="#292D32"/>
</svg>
