<svg width="18" height="18" viewBox="0 0 18 18" fill="none" xmlns="http://www.w3.org/2000/svg">
<path fill-rule="evenodd" clip-rule="evenodd" d="M18 9.00018C18 13.9707 13.9706 18.0002 9 18.0002C4.02944 18.0002 0 13.9707 0 9.00018C0 4.02962 4.02944 0.000183105 9 0.000183105C13.9706 0.000183105 18 4.02962 18 9.00018ZM9 3.82518C9.37279 3.82518 9.675 4.12739 9.675 4.50018V6.30018C9.675 6.67298 9.37279 6.97518 9 6.97518C8.62721 6.97518 8.325 6.67298 8.325 6.30018V4.50018C8.325 4.12739 8.62721 3.82518 9 3.82518ZM6.70539 5.9396C7.00346 5.71571 7.0636 5.29257 6.83971 4.9945C6.61582 4.69643 6.19268 4.63629 5.89461 4.86019C4.63918 5.80317 3.825 7.30672 3.825 9.00022C3.825 11.8583 6.14193 14.1752 9 14.1752C11.8581 14.1752 14.175 11.8583 14.175 9.00022C14.175 7.30672 13.3608 5.80317 12.1054 4.86019C11.8073 4.63629 11.3842 4.69643 11.1603 4.9945C10.9364 5.29257 10.9965 5.71571 11.2946 5.9396C12.2252 6.63858 12.825 7.74926 12.825 9.00022C12.825 11.1127 11.1125 12.8252 9 12.8252C6.88751 12.8252 5.175 11.1127 5.175 9.00022C5.175 7.74926 5.77482 6.63858 6.70539 5.9396Z" fill="#292D32"/>
</svg>
