<svg width="18" height="18" viewBox="0 0 18 18" fill="none" xmlns="http://www.w3.org/2000/svg">
<g clip-path="url(#clip0_1881_10793)">
<path d="M11.5878 9.52734C11.3435 10.7294 10.2461 11.6367 8.97621 11.6367C7.70634 11.6367 6.644 10.7294 6.39964 9.52734H5.34766C5.60562 11.3115 7.12641 12.6914 8.97621 12.6914C10.826 12.6914 12.3819 11.3115 12.6398 9.52734H11.5878Z" fill="#292D32"/>
<path d="M13.6919 9.52734C13.4264 11.8938 11.4065 13.746 8.97637 13.746C6.54619 13.746 4.56143 11.8938 4.29589 9.52734H0V10.0547C0 10.2818 0.145375 10.4836 0.360071 10.5552L2.52415 11.2633C2.61507 11.5219 2.71111 11.7572 2.81384 11.9745L1.81533 13.986C1.71466 14.1889 1.7547 14.4335 1.91446 14.5937L3.39731 16.0804C3.55808 16.2416 3.80153 16.2797 4.00339 16.1798L6.00964 15.1786C6.22641 15.2817 6.46112 15.3779 6.71895 15.4691L7.42521 17.6388C7.4966 17.8541 7.69793 17.9999 7.92445 17.9999H10.0633C10.2899 17.9999 10.4912 17.8541 10.5626 17.6388L11.2688 15.4691C11.5267 15.3779 11.7614 15.2817 11.9782 15.1786L13.9844 16.1798C14.1863 16.2802 14.4302 16.2416 14.5905 16.0804L16.0733 14.5937C16.2331 14.4335 16.2731 14.1889 16.1725 13.986L15.1739 11.9745C15.2767 11.7572 15.3727 11.5218 15.4636 11.2633L17.5927 10.5552C17.8074 10.4836 17.9527 10.2818 17.9527 10.0547V9.52734H13.6919Z" fill="#292D32"/>
<path d="M7.49609 9.52734C7.71395 10.1398 8.29229 10.582 8.97709 10.582C9.66189 10.582 10.2753 10.1398 10.4931 9.52734H7.49609Z" fill="#292D32"/>
<path d="M8.97688 0C7.81658 0 6.87305 0.946003 6.87305 2.10934C6.87305 3.27267 7.81658 4.21868 8.97688 4.21868C10.1372 4.21868 11.1158 3.27267 11.1158 2.10934C11.1158 0.946003 10.1372 0 8.97688 0Z" fill="#292D32"/>
<path d="M14.2718 0C13.1115 0 12.168 0.946003 12.168 2.10934C12.168 3.27267 13.1115 4.21868 14.2718 4.21868C15.4321 4.21868 16.3756 3.27267 16.3756 2.10934C16.3756 0.946003 15.4321 0 14.2718 0Z" fill="#292D32"/>
<path d="M3.71712 0C2.55682 0 1.61328 0.946003 1.61328 2.10934C1.61328 3.27267 2.55682 4.21868 3.71712 4.21868C4.87742 4.21868 5.82095 3.27267 5.82095 2.10934C5.82095 0.946003 4.87742 0 3.71712 0Z" fill="#292D32"/>
<path d="M16.0654 4.70654C15.5553 5.06193 14.9383 5.27315 14.2714 5.27315C13.6072 5.27315 12.9922 5.06418 12.4832 4.7115C12.2525 4.84428 12.0308 4.99359 11.8301 5.17362C12.8529 5.94023 13.5631 7.13749 13.7133 8.47231H17.9531V7.94498C17.9531 6.56607 17.1858 5.34022 16.0654 4.70654Z" fill="#292D32"/>
<path d="M8.97626 5.27344C7.1246 5.27344 5.58782 6.68617 5.33203 8.4726H12.6555C12.3998 6.68617 10.8279 5.27344 8.97626 5.27344Z" fill="#292D32"/>
<path d="M5.50493 4.71199C4.99598 5.06467 4.38096 5.27363 3.71678 5.27363C3.04982 5.27363 2.43288 5.06242 1.92273 4.70703C0.802298 5.34071 0 6.56655 0 7.94546V8.4728H4.27485C4.42507 7.13797 5.13522 5.94071 6.15807 5.17411C5.95729 4.99408 5.73562 4.84477 5.50493 4.71199Z" fill="#292D32"/>
</g>
<defs>
<clipPath id="clip0_1881_10793">
<rect width="17.9527" height="17.9997" fill="white"/>
</clipPath>
</defs>
</svg>
