<svg width="18" height="18" viewBox="0 0 18 18" fill="none" xmlns="http://www.w3.org/2000/svg">
<path fill-rule="evenodd" clip-rule="evenodd" d="M18 9.00018C18 11.7122 16.8004 14.1441 14.903 15.7941C13.3228 17.1683 11.2585 18.0002 9 18.0002C6.74147 18.0002 4.67724 17.1683 3.09705 15.7941C1.19956 14.1441 0 11.7122 0 9.00018C0 4.02962 4.02944 0.000183105 9 0.000183105C13.9706 0.000183105 18 4.02962 18 9.00018ZM9.00002 15.3002C10.581 15.3002 12.0259 14.7178 13.1321 13.7559C13.2594 13.6452 13.3823 13.5294 13.5003 13.409C12.5275 11.8355 10.875 10.8002 9.00002 10.8002C7.12507 10.8002 5.47254 11.8355 4.49973 13.409C4.61777 13.5294 4.74062 13.6452 4.86795 13.7559C5.97409 14.7178 7.41905 15.3002 9.00002 15.3002ZM9 9.00018C10.4912 9.00018 11.7 7.79135 11.7 6.30018C11.7 4.80901 10.4912 3.60018 9 3.60018C7.50883 3.60018 6.3 4.80901 6.3 6.30018C6.3 7.79135 7.50883 9.00018 9 9.00018Z" fill="#292D32"/>
</svg>
