<svg width="18" height="18" viewBox="0 0 18 18" fill="none" xmlns="http://www.w3.org/2000/svg">
<path d="M16.4178 7.07934C16.0834 6.28683 15.9232 5.88777 15.5747 5.11213L16.2998 3.58894L14.3859 1.68637L12.8824 2.40861C12.0984 2.07419 11.6993 1.914 10.9152 1.57957L10.3475 0.000183105H7.63841L7.07635 1.56833C6.28103 1.90276 5.88197 2.06295 5.10913 2.39737L3.6 1.68637L1.68618 3.58894L2.40843 5.1037C2.074 5.88777 1.91382 6.28683 1.57939 7.07091L0 7.63859V10.3477L1.56815 10.9098C1.90258 11.7051 2.06276 12.1042 2.39719 12.877L1.68618 14.3861C2.6445 15.3529 2.6445 15.3529 3.61124 16.3112L5.11475 15.5889C5.89883 15.9234 6.29789 16.0836 7.08197 16.432L7.64403 18.0002H10.3532L10.9152 16.432C11.7077 16.0976 12.1068 15.9374 12.8824 15.5889L14.3859 16.2999C15.3527 15.3416 15.3527 15.3416 16.311 14.3749L15.5888 12.8714C15.9232 12.0873 16.0834 11.6882 16.4319 10.9042L18 10.3421V7.63859L16.4178 7.07934ZM8.99297 13.8466C8.03239 13.8466 7.09338 13.5617 6.29472 13.0279C5.49606 12.4942 4.87363 11.7356 4.50616 10.8481C4.13868 9.96057 4.04268 8.984 4.23029 8.04191C4.41789 7.09983 4.88068 6.23454 5.56011 5.5555C6.23955 4.87646 7.1051 4.41417 8.0473 4.22711C8.9895 4.04005 9.96601 4.13662 10.8533 4.5046C11.7406 4.87259 12.4989 5.49546 13.0321 6.29443C13.5654 7.0934 13.8497 8.03257 13.8492 8.99316C13.8484 10.2806 13.3365 11.5151 12.4258 12.4252C11.5152 13.3353 10.2804 13.8466 8.99297 13.8466Z" fill="#292D32"/>
<path d="M12.1462 10.8561C11.7888 11.3596 11.316 11.7701 10.7674 12.0534C10.2188 12.3367 9.61041 12.4846 8.99301 12.4846C8.3756 12.4846 7.76716 12.3367 7.21859 12.0534C6.67002 11.7701 6.19725 11.3596 5.83984 10.8561C6.11177 10.0262 6.70067 9.33725 7.47825 8.93952C7.92286 9.24873 8.45145 9.41446 8.99301 9.41446C9.53416 9.4147 10.0622 9.24785 10.5049 8.93671C11.2847 9.33378 11.875 10.0241 12.1462 10.8561Z" fill="#292D32"/>
<path d="M10.4774 6.98415C10.478 7.27774 10.3914 7.5649 10.2287 7.80929C10.066 8.05367 9.83448 8.2443 9.5634 8.35704C9.29231 8.46978 8.99387 8.49956 8.70585 8.44263C8.41783 8.38569 8.15317 8.24459 7.94537 8.03718C7.73757 7.82978 7.59597 7.56539 7.53848 7.27747C7.481 6.98956 7.51022 6.69107 7.62245 6.41977C7.73467 6.14847 7.92486 5.91656 8.16894 5.75338C8.41301 5.59021 8.70001 5.50312 8.9936 5.50312C9.18833 5.50275 9.38122 5.54078 9.56123 5.61504C9.74124 5.68931 9.90484 5.79834 10.0427 5.9359C10.1805 6.07347 10.2898 6.23686 10.3644 6.41673C10.439 6.5966 10.4774 6.78942 10.4774 6.98415Z" fill="#292D32"/>
</svg>
