<svg width="18" height="18" viewBox="0 0 18 18" fill="none" xmlns="http://www.w3.org/2000/svg">
<path fill-rule="evenodd" clip-rule="evenodd" d="M17.9529 7.89841V4.30425C17.9529 1.43791 16.5153 0.000244141 13.6489 0.000244141H7.89826C6.11022 0.000244141 4.8882 0.557339 4.2143 1.67153C4.05256 1.94109 4.26821 2.25558 4.5827 2.25558L10.0548 2.24659C13.6489 2.24659 15.7066 4.30425 15.7066 7.89841L15.6976 11.223C15.6976 11.5375 16.0121 11.7531 16.2816 11.5914C17.3958 10.9175 17.9529 9.69549 17.9529 7.89841ZM4.30401 3.59399H10.0547C12.921 3.59399 14.3587 5.03166 14.3587 7.898V11.4922C14.3587 11.7258 14.3497 11.9504 14.3227 12.1661C14.1161 14.5921 12.6874 15.7962 10.0547 15.7962H9.69524C9.47061 15.7962 9.25496 15.904 9.12018 16.0837L8.04193 17.5214C7.56571 18.1593 6.79296 18.1593 6.31673 17.5214L5.23849 16.0837C5.12168 15.9309 4.8611 15.7962 4.66342 15.7962H4.30401C1.43766 15.7962 0 15.0863 0 11.4922V7.898C0 5.26528 1.21303 3.8366 3.6301 3.62994C3.84575 3.60298 4.07039 3.59399 4.30401 3.59399ZM3.14489 9.88377C3.14489 10.378 3.54025 10.7823 4.04343 10.7823C4.53763 10.7823 4.94197 10.378 4.94197 9.88377C4.94197 9.38958 4.53763 8.98523 4.04343 8.98523C3.54923 8.98523 3.14489 9.38958 3.14489 9.88377ZM6.28079 9.88377C6.28079 10.378 6.67615 10.7823 7.17933 10.7823C7.68252 10.7823 8.07787 10.378 8.07787 9.88377C8.07787 9.38958 7.67353 8.98523 7.17933 8.98523C6.68514 8.98523 6.28079 9.38958 6.28079 9.88377ZM9.42568 9.88377C9.42568 10.378 9.82104 10.7823 10.3242 10.7823C10.8184 10.7823 11.2228 10.378 11.2228 9.88377C11.2228 9.38958 10.8184 8.98523 10.3242 8.98523C9.83003 8.98523 9.42568 9.38958 9.42568 9.88377Z" fill="#292D32"/>
</svg>
