<svg width="17" height="18" viewBox="0 0 17 18" fill="none" xmlns="http://www.w3.org/2000/svg">
<path fill-rule="evenodd" clip-rule="evenodd" d="M6.29997 -0.000183105C5.30587 -0.000183105 4.49998 0.805702 4.49998 1.79981C4.49998 2.79392 5.30587 3.5998 6.29998 3.5998H9.89996C10.8941 3.5998 11.7 2.79392 11.7 1.79981C11.7 0.805702 10.8941 -0.000183105 9.89996 -0.000183105H6.29997ZM3.15126 1.89047C1.3498 2.27969 0 3.88233 0 5.80024V14.0002C0 16.2093 1.79086 18.0002 4 18.0002H12.1999C14.4091 18.0002 16.1999 16.2093 16.1999 14.0002V5.80024C16.1999 3.88234 14.8501 2.2797 13.0487 1.89047C13.0009 3.58844 11.6095 4.95023 9.89996 4.95023H6.29998C4.59046 4.95023 3.19901 3.58843 3.15126 1.89047ZM3.74998 7.19978C3.74998 6.78557 4.08577 6.44978 4.49998 6.44978H11.7C12.1142 6.44978 12.45 6.78557 12.45 7.19978C12.45 7.614 12.1142 7.94978 11.7 7.94978H4.49998C4.08577 7.94978 3.74998 7.614 3.74998 7.19978ZM4.49998 10.0498C4.08577 10.0498 3.74998 10.3856 3.74998 10.7998C3.74998 11.214 4.08577 11.5498 4.49998 11.5498H11.7C12.1142 11.5498 12.45 11.214 12.45 10.7998C12.45 10.3856 12.1142 10.0498 11.7 10.0498H4.49998ZM3.74998 14.3998C3.74998 13.9855 4.08577 13.6498 4.49998 13.6498H8.09997C8.51418 13.6498 8.84997 13.9855 8.84997 14.3998C8.84997 14.814 8.51418 15.1498 8.09997 15.1498H4.49998C4.08577 15.1498 3.74998 14.814 3.74998 14.3998Z" fill="#292D32"/>
</svg>
