<svg width="18" height="18" viewBox="0 0 18 18" fill="none" xmlns="http://www.w3.org/2000/svg">
<path fill-rule="evenodd" clip-rule="evenodd" d="M8.226 0.000183105H4C1.79086 0.000183105 0 1.79104 0 4.00018V8.25012H8.226V0.000183105ZM0 9.75012V13.9999C0 16.209 1.79086 17.9999 4 17.9999H8.226V9.75012H0ZM9.726 17.9999H13.9527C16.1619 17.9999 17.9527 16.209 17.9527 13.9999V9.75012H9.726V17.9999ZM17.9527 8.25012V4.00018C17.9527 1.79104 16.1619 0.000183105 13.9527 0.000183105H9.726V8.25012H17.9527ZM16.0102 12.1502C16.0102 12.5644 15.6744 12.9002 15.2602 12.9002H12.1185C11.7042 12.9002 11.3685 12.5644 11.3685 12.1502C11.3685 11.7359 11.7042 11.4002 12.1185 11.4002H15.2602C15.6744 11.4002 16.0102 11.7359 16.0102 12.1502ZM15.2602 15.5997C15.6744 15.5997 16.0102 15.264 16.0102 14.8497C16.0102 14.4355 15.6744 14.0997 15.2602 14.0997H12.1185C11.7042 14.0997 11.3685 14.4355 11.3685 14.8497C11.3685 15.264 11.7042 15.5997 12.1185 15.5997H15.2602Z" fill="#292D32"/>
</svg>
